<svg version="1.2" xmlns="http://www.w3.org/2000/svg" viewBox="0 0 512 512" width="512" height="512">
	<title>playlist</title>
	<style>
		.s0 { fill: #6f2dff } 
		.s1 { fill: #d4d4d4 } 
	</style>
	<g id="Background">
		<path id="Path 0" class="s0" d="m63.8 27.6c-3.2 0.8-8.6 2.8-12 4.6-3.5 1.7-8.7 5.5-11.5 8.5-2.9 2.9-6.6 8-8.3 11.3-1.6 3.3-3.7 9-4.6 12.7q-1.6 6.8-1 13.3c0.3 3.6 1.5 9.2 2.6 12.5 1.2 3.3 3.5 8.2 5.3 10.9 1.8 2.7 5.3 6.8 7.8 9 2.5 2.3 6.8 5.3 9.5 6.8 2.7 1.5 7.6 3.4 10.9 4.2 5.3 1.4 24.5 1.6 172 1.6 144.6 0 166.7-0.2 171.8-1.5 3.1-0.8 8.1-2.7 10.9-4.2 2.9-1.4 7.8-5 10.8-7.8 3-2.9 6.9-7.9 8.7-11.1 1.7-3.3 3.9-8.6 4.7-11.9 0.9-3.3 1.6-8.7 1.6-12 0-3.3-0.7-8.7-1.6-12-0.8-3.3-2.7-8.2-4.2-10.9-1.5-2.7-4.5-7-6.8-9.5-2.2-2.5-6.3-6-9-7.8-2.7-1.8-7.6-4.2-10.9-5.5l-6-2.3c-309.6-0.3-335.9-0.1-340.8 1.1zm-1.7 139c-3 0.8-7.7 2.7-10.4 4.2-2.7 1.5-7 4.5-9.5 6.8-2.5 2.2-6 6.3-7.8 9-1.8 2.7-4.1 7.6-5.3 10.9-1.1 3.3-2.3 8.9-2.6 12.5q-0.6 6.5 1 13.2c0.9 3.8 3 9.5 4.6 12.8 1.7 3.3 5.5 8.5 8.5 11.5 3 3 8.2 6.8 11.5 8.5 3.3 1.6 8.9 3.7 12.5 4.5 5.7 1.3 28 1.5 173.3 1.2l166.7-0.2c9.3-3.6 14.2-6 16.9-7.8 2.7-1.8 6.8-5.3 9-7.8 2.3-2.5 5.3-6.8 6.8-9.5 1.5-2.7 3.4-7.6 4.2-10.9 0.9-3.3 1.6-8.7 1.6-12 0-3.3-0.7-8.7-1.6-12-0.8-3.3-3-8.6-4.7-11.9-1.8-3.2-5.7-8.2-8.7-11.1-3-2.8-7.9-6.4-10.7-7.8-2.9-1.5-7.9-3.4-11-4.2-5.1-1.3-27.1-1.5-172.3-1.4-144.3 0-167.2 0.2-172 1.5zm1.8 149c-3.2 0.8-8.6 2.8-12 4.6-3.5 1.7-8.7 5.5-11.5 8.5-2.9 2.9-6.6 8-8.3 11.3-1.6 3.3-3.7 9-4.6 12.7q-1.6 6.8-1 13.3c0.3 3.6 1.5 9.2 2.6 12.5 1.2 3.3 3.5 8.2 5.3 10.9 1.8 2.7 5.5 6.9 8.2 9.3 2.8 2.5 7.7 5.8 11 7.4 3.3 1.6 8.3 3.4 11 3.9 3.2 0.7 34.6 0.9 87.5 0.8 74.6-0.3 83-0.5 87.5-2 2.8-1 7.9-3.7 11.5-6.1 3.8-2.5 8.4-6.8 11.1-10.2 2.5-3.3 5.6-8.7 6.9-12 1.6-4.3 2.4-8.8 2.8-15.5 0.3-7.2 0-11-1.4-16-1-3.6-3.5-9-5.5-12-2-3-5.8-7.6-8.5-10.1-2.7-2.5-7.4-5.8-10.4-7.4-3-1.5-8.4-3.4-12-4.1-5.2-1.1-22.5-1.4-85.5-1.3-64.6 0.1-80 0.3-84.7 1.5z"/>
		<path id="Path 1" class="s1" d="m363 284.9c-4.7 1-12.3 3.4-17 5.2-4.7 1.9-12.6 6.1-17.5 9.4-4.9 3.2-12.2 9-16.1 12.9-3.9 3.9-9.7 11.2-12.9 16.1-3.3 5-7.5 12.8-9.3 17.5-1.9 4.7-4.3 12.6-5.3 17.5-1.2 5.7-1.9 13.2-1.9 20.5 0 7.3 0.7 14.8 1.9 20.5 1 5 3.3 12.6 5 17 1.8 4.4 5.3 11.4 7.9 15.5 2.6 4.1 7.2 10.4 10.2 14 3.1 3.6 9.6 9.5 14.6 13.3 4.9 3.7 12 8.3 15.9 10.1 3.9 1.9 10.4 4.6 14.5 5.9 4.1 1.4 12.2 3.2 18 4.2 7.1 1.2 12.8 1.6 17.5 1.1 3.9-0.3 11.1-1.4 16-2.5 4.9-1 12.8-3.4 17.5-5.3 4.7-1.8 12.6-6 17.5-9.3 4.9-3.2 12.2-9 16.1-12.9 3.9-3.9 9.7-11.1 12.9-16.1 3.3-4.9 7.5-12.8 9.3-17.5 1.9-4.7 4.3-12.5 5.3-17.5 1.2-5.7 1.9-13.2 1.9-20.5 0-7.3-0.7-14.8-1.9-20.5-1-4.9-3.4-12.8-5.3-17.5-1.8-4.7-6-12.5-9.3-17.5-3.2-4.9-9-12.2-12.9-16.1-3.9-3.9-11.4-9.9-16.6-13.3-5.2-3.4-13.1-7.5-17.5-9.2-4.4-1.7-12.1-4-17-5-6-1.3-13-1.9-21-1.8-7.5 0-15.2 0.7-20.5 1.8z"/>
		<path id="Path 2" class="s0" d="m377 337.3c-1.9 0.7-4.2 2.4-5.1 3.7-1 1.4-2.2 3.7-2.8 5.2-0.6 1.6-1.1 7.1-1.1 12.3v9.5c-20.3 0.5-22.2 0.8-24.3 2.6-1.4 1.1-3.6 3.3-4.8 4.8-1.9 2.2-2.4 3.9-2.4 8.6 0 4.4 0.5 6.5 2.1 8.7 1.2 1.5 3.4 3.7 4.8 4.8 2.3 1.7 4.6 2 13.7 2.2l10.9 0.3c0.5 20 0.8 22.3 2.5 24.6 1.1 1.4 3.3 3.6 4.8 4.8 2.2 1.6 4.3 2.1 8.7 2.1 4.3 0 6.6-0.5 8.6-2 1.4-1.1 3.6-3.3 4.8-4.8 1.8-2.4 2.1-4.4 2.4-13.8l0.2-10.9c20-0.5 22.3-0.8 24.6-2.5 1.4-1.1 3.6-3.3 4.8-4.8 1.6-2.2 2.1-4.3 2.1-8.7 0-4.3-0.5-6.6-2-8.6-1.1-1.4-3.3-3.6-4.8-4.8-2.4-1.8-4.4-2.1-13.8-2.4l-10.9-0.2c-0.5-20.3-0.8-22.3-2.6-24.7-1.2-1.5-3.2-3.6-4.5-4.6-1.3-1-4.6-2.1-7.4-2.3-2.8-0.2-6.5 0.1-8.5 0.9z"/>
	</g>
</svg>