<svg version="1.2" xmlns="http://www.w3.org/2000/svg" viewBox="0 0 512 512" width="512" height="512">
	<title>nav-menu-icons-svg</title>
	<style>
		.s0 { fill: #ffffff } 
	</style>
	<path id="Path 0" fill-rule="evenodd" class="s0" d="m255.1 49c171.9 0 176.3 0 182.7 1.7 3.7 0.9 9.6 3.2 13.2 5 4.8 2.3 8.5 5.1 13.4 9.9 4.7 4.7 7.6 8.6 9.9 13.1 1.7 3.5 4 9.2 4.9 12.7 1.1 4.1 1.8 9.2 1.8 13.9 0 4.7-0.7 10.1-1.8 14.5-1 3.9-3.2 9.7-4.8 12.8-1.7 3.2-5.2 8.1-7.8 11-2.6 2.9-7.2 6.9-10.3 8.9-3.2 2-8.7 4.8-18.9 8.7l-179.7 0.3c-157.7 0.2-180.3 0-185-1.1-2.9-0.8-8.6-3-12.7-5.1-5.7-2.7-9.1-5.2-13.7-9.9-3.9-3.8-7.4-8.5-9.4-12.3-1.8-3.4-4.1-9.2-5.1-12.8-1.1-4.3-1.8-9.3-1.8-14.1 0-4.7 0.7-10.1 1.8-14.5 1-3.9 3.1-9.7 4.6-12.8 1.9-3.9 5.1-8.1 9.9-12.9 5.3-5.3 8.7-7.9 13.7-10.4 3.6-1.7 9.3-4 12.7-4.9 6-1.5 13.1-1.6 182.4-1.7zm-181.8 42.4c-1.2 1.1-2.9 3.6-3.7 5.5-1 2.2-1.7 5.6-1.7 8.8 0 3.9 0.5 6.4 2 9.3 1.4 2.6 3.5 4.8 6.4 6.6l4.2 2.6h350c7.1-4.4 9.2-6.6 10.6-9.2 1.5-2.9 2-5.4 2-9.3 0-3.1-0.7-6.7-1.6-8.8-0.9-1.9-2.9-4.6-4.4-5.9-1.5-1.3-4.3-2.8-6.1-3.3-2.1-0.6-64.2-0.9-175.9-0.8-149.1 0-173.2 0.2-176.2 1.3-1.9 0.7-4.5 2.1-5.6 3.2zm276.9 107.8c2.9 0.2 7.3 1 9.7 1.7 2.4 0.7 6.6 2.6 9.4 4.1 2.7 1.6 23.1 19 45.3 38.5 22.2 19.6 43.8 39.1 48 43.2 6 6 8.3 9.1 11.2 15 2.1 4.1 4.3 9.7 5 12.4 0.7 2.6 1.6 8.6 1.9 13.2 0.3 5.8 0.1 10.5-0.8 15.4-0.8 3.9-2.3 9.4-3.4 12.3-1.1 2.9-3.9 8.1-6.1 11.5-2.3 3.4-7.5 9.1-11.5 12.8-4.1 3.7-24.7 21.9-45.7 40.5-21.1 18.6-40.5 35.1-43.2 36.7-2.7 1.6-7.4 3.7-10.6 4.7-3.1 0.9-8.1 1.7-11 1.7-2.9 0-9-0.9-13.6-2-5.3-1.3-10.4-3.2-13.7-5.2-2.9-1.7-7.6-5.5-10.5-8.4-3-3-6.8-7.9-8.7-10.9-1.8-3.1-4.4-8.8-8.1-19.7l-0.2-82.4c-0.3-73.1-0.1-83.1 1.1-88.9 0.8-3.7 3.3-10.4 5.5-15 3.3-6.9 5.2-9.6 11.1-15.6 5.5-5.4 8.8-7.9 13.8-10.3 3.6-1.8 9.6-3.8 13.2-4.5 3.7-0.7 9-1.1 11.9-0.8zm-16.4 51.9c-1 3.7-1.2 17-1.2 81v76.6c3.6 7.8 5.8 10.8 7.9 12.4 2.5 1.9 4.6 2.7 7.9 2.9 4.1 0.3 4.8 0.1 8.8-3.2 2.5-1.9 22.3-19.3 44-38.6 22-19.5 40.4-36.5 41.4-38.2 1.2-2.1 1.9-5.2 2.1-10.1 0.3-5 0-8.4-1-11.5-0.8-2.4-2.6-5.8-4-7.5-1.3-1.7-20.4-18.9-42.3-38.3-29.5-26-41.1-35.7-44.4-37.2-2.5-1.1-5.4-2-6.5-2-1.2 0-3.9 1.9-6.7 4.7-3.5 3.4-5 5.7-6 9zm-191.7-51.5c54 0 63.2 0.1 69.1 1.4 3.8 0.7 9 2.4 11.7 3.6 2.7 1.1 7.2 3.8 10.1 5.9 2.9 2.1 6.8 5.5 8.5 7.6 1.8 2.2 4.4 5.9 6 8.3 1.5 2.4 3.8 7.6 5.1 11.5 2 6.1 2.3 8.5 2.3 18 0 9.6-0.3 12-2.3 18.1-1.3 3.9-3.9 9.5-5.9 12.5-1.9 3.1-5.3 7.3-7.5 9.5-2.2 2.2-6.4 5.6-9.5 7.5-3 2-8.6 4.7-19.6 8.4h-133.8l-6.7-2.1c-3.6-1.2-7.9-2.8-9.6-3.7-1.7-0.8-5.7-3.5-8.8-5.8-3.1-2.4-7.4-6.7-9.6-9.6-2.1-2.9-5-7.6-6.3-10.6-1.4-2.9-3.1-8.3-3.9-12.1-0.8-3.7-1.4-9.2-1.4-12.1 0-2.9 0.6-8.3 1.4-12.1 0.8-3.7 2.5-9.2 3.9-12.1 1.3-2.9 4.3-7.8 6.7-10.9 2.4-3.1 6.7-7.4 9.6-9.6 2.9-2.2 7.7-5.1 10.6-6.4 2.9-1.3 8-3 11.4-3.8 5.2-1.1 16.4-1.3 68.5-1.4zm-68.8 42.6c-1.1 1-2.8 3.3-3.7 5.1-1.1 2.2-1.7 5.2-1.7 8.6 0 3.1 0.6 6.5 1.4 8.2 0.8 1.5 2.3 3.8 3.3 4.9 1 1.1 3.4 2.8 5.2 3.7 3.1 1.6 6.1 1.7 65 1.7 58.8 0 61.8-0.1 64.9-1.7 1.8-0.9 4.2-2.6 5.2-3.7 1-1.1 2.5-3.4 3.3-4.9 0.8-1.7 1.4-5.1 1.4-8.2 0-3.1-0.6-6.4-1.4-8.1-0.8-1.6-2.3-3.8-3.3-5-1-1.1-3.4-2.8-5.2-3.7-3.1-1.6-6-1.7-65.2-1.6-54.6 0-62.1 0.2-64.5 1.4-1.4 0.8-3.6 2.2-4.7 3.3zm69 108c55.5 0 66 0.2 70.5 1.3 2.9 0.7 6.9 2 8.8 2.8 1.9 0.9 6.1 3.1 9.2 5.1 3.1 1.9 7.8 5.9 10.4 8.8 2.5 2.9 6 7.9 7.6 11 1.7 3.2 3.7 7.9 4.4 10.6 0.8 2.7 1.7 8.6 2 13.2 0.3 6 0.1 10.3-0.9 15-0.8 3.6-3.1 10-5 14.1-2.9 5.9-5.1 8.9-10.4 14.1-3.8 3.8-9 7.9-12 9.4-2.9 1.5-8.9 3.8-21.2 7.4h-125.9l-7.9-2.3c-4.4-1.3-10.3-3.6-13.2-5.1-2.9-1.6-7.8-5.2-10.9-8.1-3.1-2.9-7.1-7.5-8.8-10.1-1.8-2.7-4.3-8.2-5.8-12.4-1.8-5.4-2.6-9.7-2.9-15.8-0.3-5.7 0-10.5 0.9-15 0.8-3.6 3.1-10 5.1-14.1 2.8-5.6 5.3-9 9.9-13.6 4.1-4.1 8.6-7.4 12.9-9.7 3.6-1.9 9.2-4.1 12.3-5 5.2-1.4 11.6-1.5 70.9-1.6zm-67.4 40.7c-1.7 1.2-3.9 3.9-5 6-1.4 2.8-2 5.5-2 9.2 0 3.2 0.7 6.7 1.6 8.8 0.9 2 2.9 4.6 4.4 6 1.5 1.3 4.3 2.8 6.1 3.3 2 0.5 26.1 0.8 62.8 0.8 36.6 0 60.7-0.3 62.7-0.8 1.8-0.5 4.6-2 6.1-3.3 1.5-1.4 3.5-4 4.4-6 0.9-2.1 1.6-5.7 1.6-8.8 0.1-3.9-0.5-6.3-2-9.2-1.4-2.7-3.5-4.9-6.3-6.7l-4.3-2.6c-93.6-0.2-122.2 0.1-123.9 0.5-1.7 0.4-4.5 1.7-6.2 2.8z"/>
</svg>