<svg version="1.2" xmlns="http://www.w3.org/2000/svg" viewBox="0 0 512 512" width="512" height="512">
	<title>nav-menu-icons-svg</title>
	<style>
		.s0 { fill: #ffffff } 
	</style>
	<path id="Path 0" fill-rule="evenodd" class="s0" d="m249.6 47c29.6-0.1 46.3 0.2 48.7 0.8 3.1 0.9 14.5 11.9 84.2 81.6 73.9 73.9 80.7 81 81.7 84.7 0.8 3.1 1 18.4 0.6 61.4-0.4 41.6-0.9 60.6-1.9 69.5-0.7 6.8-2.1 16.2-3.1 20.9-1 4.8-3.3 13.2-5.1 18.7-1.7 5.5-5.1 13.7-7.4 18.2-2.3 4.5-6.1 10.8-8.4 14-2.4 3.3-6.9 8.6-10.2 11.9-3.2 3.2-8.6 7.8-11.8 10.1-3.3 2.3-8.6 5.7-11.8 7.5-3.3 1.7-9.6 4.6-14.1 6.3-4.5 1.8-12.5 4.2-17.7 5.5-5.3 1.3-14.1 3-19.6 3.8-5.5 0.8-19.8 1.8-31.8 2.3-12 0.4-41.7 0.8-65.9 0.8-24.3 0-53.7-0.4-65.5-0.9-11.7-0.4-26-1.4-31.8-2.3-5.7-0.8-13.1-2.1-16.3-2.8-3.3-0.8-9.8-2.6-14.6-4.1-4.7-1.6-12.1-4.5-16.3-6.6-4.3-2-10.8-5.8-14.5-8.3-3.7-2.5-10-7.8-14-11.8-4-4-9.7-10.9-12.6-15.4-3-4.5-7.2-12.5-9.4-17.8-2.2-5.2-5.2-14.2-6.7-20-1.4-5.7-3.3-15.1-4.2-20.9-0.8-5.7-1.9-20.2-2.3-32.2-0.5-12-0.8-38.8-0.8-59.6 0-20.7 0.4-50.4 0.8-65.9 0.5-18.1 1.3-31.9 2.3-38.6 0.9-5.8 2.8-15.2 4.2-20.9 1.5-5.8 4.5-14.8 6.7-20 2.2-5.3 6.6-13.5 9.7-18.2 3.2-4.8 8.8-11.7 12.6-15.5 3.7-3.7 10.1-9 14.1-11.6 4-2.7 10.3-6.3 14.1-8.1 3.7-1.8 10.2-4.4 14.5-5.9 4.2-1.4 11-3.4 15-4.3 4-1 11.8-2.4 17.3-3.3 5.5-0.8 18.2-1.8 28.2-2.2 10-0.3 38.4-0.7 63.1-0.8zm-98.1 33.6c-5.3 1-13.5 3.3-18.2 5-4.8 1.7-11.9 5-15.8 7.4-3.9 2.4-9.9 7.2-13.5 10.7-3.5 3.5-8.1 9.2-10.3 12.7-2.2 3.5-5.3 9.6-6.9 13.6-1.5 4-3.8 11.2-5 16-1.2 4.7-2.7 13.9-3.5 20.4-1.1 9.7-1.4 25.7-1.4 89.6 0 63.8 0.3 79.8 1.4 89.5 0.8 6.5 2.3 15.7 3.5 20.4 1.2 4.8 3.5 12 5 16 1.6 4 4.7 10.1 6.9 13.6 2.2 3.5 6.8 9.2 10.2 12.6 3.4 3.4 9.5 8.2 13.5 10.7 4 2.4 10.7 5.7 15 7.2 4.2 1.5 11.2 3.6 15.4 4.6 4.3 1 12.9 2.4 19.1 3.1 9.1 1.1 26.8 1.3 89.1 1.3 63.9 0 79.8-0.2 89.5-1.3 6.5-0.8 15.7-2.4 20.5-3.6 4.7-1.1 11.9-3.4 15.9-5 4-1.6 10.1-4.7 13.6-6.8 3.5-2.2 9.2-6.8 12.6-10.2 3.5-3.4 8-9.1 10.2-12.6 2.2-3.5 5.2-9.6 6.8-13.6 1.6-4 3.9-11.2 5.1-16 1.2-4.7 2.7-13.9 3.5-20.4 1.1-9.3 1.4-22.9 1.4-63v-51.1c-80.2-0.6-88.9-0.9-94.6-2.1-3.7-0.9-9.4-2.4-12.7-3.5-3.2-1-8.8-3.4-12.3-5.1-4.3-2.3-8.6-5.6-13.6-10.6-5.1-5-8.4-9.3-10.6-13.7-1.8-3.5-4.1-9-5.2-12.3-1.1-3.2-2.6-8.9-3.4-12.7-1.3-5.7-1.5-13.8-1.6-50.7l-0.2-43.8c-80.9 0.2-107.9 0.6-112.2 1-4.2 0.4-12 1.6-17.2 2.7zm158.4 49.9c0.3 29.9 0.5 33.8 2.2 40 1 3.7 2.7 8.6 3.8 10.7 1 2.1 3.5 5.6 5.4 7.7 2 2.1 5.6 5 8 6.3 2.4 1.4 7.7 3.4 11.7 4.5 6.6 1.8 9.9 2 36.4 2.4 16 0.2 30.8 0.2 32.9 0.1l3.9-0.3-104.7-104.6zm-112.1 91.8c2.8 0 5.1 0.6 7.3 2.1 1.7 1.1 3.9 3.2 5 4.6 1.8 2.5 1.9 3.7 2.8 88.8l7.7-7.8c4.2-4.3 9-8.4 10.7-9.1 1.6-0.7 4.1-1.3 5.4-1.3 1.4 0 4.2 0.8 6.2 1.7 2.2 1 4.4 2.9 5.8 5.2q2.2 3.6 2.2 7.7c0 2.5-0.7 5.2-1.9 7.2-1.1 1.8-11.3 12.5-22.7 23.8-18 17.9-21.2 20.7-24.8 21.7-3.3 0.9-4.8 0.9-7.7 0-2.9-0.9-8.1-5.5-25.6-23.1-19.1-19-22.1-22.4-23-25.8-0.7-2.8-0.7-4.9 0.1-7.7 0.5-2.1 2.1-4.9 3.4-6.3 1.3-1.3 4-2.8 6-3.5 2.2-0.7 5-0.9 7.3-0.5 3 0.6 5.1 2.2 21.3 18.2l0.2-43.3c0.3-42.4 0.3-43.4 2.2-45.9 1-1.4 3.2-3.5 4.9-4.6q3-2.1 7.2-2.1z"/>
</svg>