<svg version="1.2" xmlns="http://www.w3.org/2000/svg" viewBox="0 0 512 512" width="512" height="512">
	<title>nav-menu-icons</title>
	<style>
		.s0 { fill: #ffffff } 
	</style>
	<g id="Pasta 1">
		<path id="Layer" fill-rule="evenodd" class="s0" d="m397.3 47.7c6.9-2.7 14.3-4.1 21.7-4.1 7.5 0 14.8 1.4 21.7 4.1 6.9 2.8 13.2 6.9 18.6 12 5.3 5.3 9.5 11.6 12.4 18.5 2.8 6.9 4.3 14.4 4.3 21.8 0 7.5-1.5 14.9-4.3 21.9-2.9 6.9-7.1 13.2-12.4 18.5l-222.7 222.7c-4.2 4.2-8.9 8.1-13.8 11.4-5 3.3-10.3 6.1-15.8 8.4-5.5 2.3-11.3 4.1-17.2 5.2-5.8 1.2-11.8 1.8-17.8 1.7h-24.5c-2.4 0-4.8-0.4-7-1.4-2.2-0.9-4.2-2.2-5.9-3.9-1.7-1.7-3.1-3.7-4-5.9-0.9-2.3-1.4-4.6-1.4-7v-24.6c0-5.9 0.6-11.9 1.7-17.8 1.2-5.9 2.9-11.6 5.2-17.1 2.3-5.6 5.1-10.9 8.5-15.8 3.3-5 7.1-9.6 11.4-13.8l222.7-222.8c5.4-5.1 11.7-9.2 18.6-12zm40.6 60.2c1.1-2.5 1.6-5.2 1.6-7.9 0-2.6-0.5-5.3-1.6-7.8-1-2.5-2.5-4.7-4.4-6.6-1.9-1.9-4.2-3.4-6.7-4.3-2.5-1-5.1-1.6-7.8-1.6-2.7 0-5.3 0.6-7.8 1.6-2.5 0.9-4.7 2.4-6.7 4.3l-222.7 222.7q-3.8 3.8-6.8 8.3-3 4.5-5.1 9.5-2 5-3.1 10.3-1 5.2-1.1 10.6v6.3h6.3q5.4 0 10.7-1.1 5.3-1 10.3-3.1 5-2.1 9.4-5 4.5-3 8.4-6.8l222.7-222.8c1.9-1.9 3.4-4.1 4.4-6.6z"/>
		<path id="Layer" fill-rule="evenodd" class="s0" d="m462.2 202.4c2.2 0.9 4.2 2.3 5.9 4 1.7 1.7 3 3.7 4 5.9 0.9 2.2 1.4 4.6 1.4 7v116.3c0 6-0.6 11.9-1.8 17.8-1.1 5.9-2.9 11.6-5.2 17.1-2.3 5.6-5.1 10.9-8.4 15.8-3.4 5-7.2 9.6-11.4 13.8l-48.5 48.6c-4.3 4.3-8.9 8.1-13.9 11.4-4.9 3.3-10.2 6.2-15.8 8.4-5.5 2.3-11.2 4.1-17.1 5.2-5.9 1.2-11.8 1.8-17.8 1.8h-207.3c-11.9-0.1-23.8-2.4-34.9-7-11.1-4.6-21.1-11.4-29.6-19.8-8.5-8.5-15.2-18.6-19.8-29.7-4.6-11-7-22.9-7-34.9v-255.8c0-11.9 2.4-23.8 7-34.9 4.6-11.1 11.3-21.1 19.8-29.6 8.5-8.5 18.5-15.2 29.6-19.8 11.1-4.6 23-7 34.9-7h165.2c4.9 0 9.5 1.9 12.9 5.4 3.5 3.4 5.4 8 5.4 12.9 0 4.8-1.9 9.5-5.4 12.9-3.4 3.4-8 5.3-12.9 5.3h-165.2c-7.2 0-14.3 1.5-20.9 4.2-6.7 2.8-12.7 6.8-17.8 11.9-5.1 5.1-9.1 11.1-11.9 17.8-2.7 6.6-4.2 13.7-4.2 20.9v255.8c0 7.2 1.5 14.3 4.2 21 2.8 6.6 6.8 12.7 11.9 17.8 5.1 5.1 11.1 9.1 17.8 11.8 6.6 2.8 13.7 4.2 20.9 4.2h182.7v-73.1c0-7.2 1.5-14.3 4.2-20.9 2.8-6.7 6.8-12.7 11.9-17.8 5.1-5.1 11.1-9.1 17.8-11.9 6.6-2.7 13.7-4.2 20.9-4.2h73.1v-91.7c0-2.4 0.5-4.8 1.4-7 0.9-2.2 2.3-4.2 4-5.9 1.7-1.7 3.7-3.1 5.9-4 2.2-0.9 4.6-1.4 7-1.4 2.4 0 4.8 0.5 7 1.4zm-41.3 171.9q2.7-2.7 5.1-5.8 2.3-3.1 4.1-6.5 1.9-3.4 3.2-7 1.4-3.7 2.2-7.4h-71.7c-2.4 0-4.7 0.4-7 1.4-2.2 0.9-4.2 2.2-5.9 3.9-1.7 1.7-3 3.7-3.9 5.9-1 2.3-1.4 4.6-1.4 7v71.7q3.8-0.8 7.4-2.2 3.6-1.3 7-3.2 3.4-1.9 6.5-4.2 3.1-2.3 5.8-5z"/>
	</g>
</svg>