<svg version="1.2" xmlns="http://www.w3.org/2000/svg" viewBox="0 0 512 512" width="512" height="512">
	<title>nav-menu-icons</title>
	<style>
		.s0 { fill: #ffffff } 
	</style>
	<path id="Path 0" fill-rule="evenodd" class="s0" d="m255.8 43.1c2.8-0.1 7.6 0.8 10.4 1.8 3.7 1.4 7.8 4.3 13.7 9.8 4.7 4.3 49.2 46.2 99 93.2 60.4 56.9 91.9 87.2 94.4 91 2.1 3.1 4.5 7.8 5.3 10.6 0.8 2.7 1.4 7.2 1.4 10 0 2.7-0.7 7.5-1.5 10.5-0.8 3-2.6 7.3-3.9 9.5-1.3 2.2-5 6.4-8.2 9.3-3.6 3.2-8.1 6.2-11.4 7.4-3.8 1.4-9.1 2.3-28 3.3v60c0 33-0.5 63.4-1 67.5-0.7 5.2-2.1 9.8-4.7 15-2.3 4.7-5.8 9.5-9.3 13-3.1 3.1-8.3 6.9-12 8.7-3.6 1.7-9.2 3.7-12.5 4.3-4 0.8-17.7 1-77 0.5l-5-2.6c-2.8-1.5-6.5-4.4-8.4-6.5-1.9-2.2-4.4-5.9-5.5-8.4-2-4.3-2.1-6.7-2.6-49.1-0.5-42.9-0.6-44.8-2.5-46.8-2-2.1-2.7-2.2-30.5-2.2-27.8 0-28.5 0.1-30.5 2.2-1.9 2-2 3.9-2.5 46.8-0.5 42.4-0.6 44.8-2.6 49.1-1.1 2.5-3.6 6.2-5.5 8.4-1.9 2.1-5.7 5-13.4 9.1l-36 0.3c-29.8 0.2-37.2 0-43-1.3-3.9-0.8-9.5-3-12.5-4.7-3-1.7-7.9-5.5-10.8-8.5-3.1-3.2-6.6-8.2-8.7-12.6-2.1-4.3-3.9-10-4.5-14.2-0.5-4-1-32.6-1-128l-11.2-0.6c-7.7-0.4-13-1.3-16.8-2.7-3.3-1.2-7.8-4.2-11.4-7.4-3.2-2.9-6.9-7.1-8.2-9.3-1.3-2.2-3.1-6.5-4-9.5-1.1-3.8-1.5-7.7-1.2-12.5 0.4-4.5 1.4-9 3-12.5 1.4-3 3.9-7.1 5.4-9.1 1.6-2 35.3-34.2 74.9-71.5 39.6-37.3 83.7-78.9 98-92.4 22-20.8 26.8-24.9 31.5-26.8 3-1.1 7.9-2.1 10.7-2.1zm-179.7 214.6c0 0.5 8 1 17.7 1.3 15.4 0.4 18.3 0.8 21.2 2.5 1.9 1.1 4.8 3.7 6.5 5.8l3.1 3.9 1 153 5.5 4.8h52c0.5-79.3 0.5-79.5 2.9-85.5 1.4-3.3 4.5-8.7 7-11.9 2.5-3.3 7.4-7.9 10.8-10.3 3.5-2.4 9.3-5.2 13-6.3 6.2-1.9 9.6-2 39.3-2 29.7 0 33.1 0.1 39.2 2 3.8 1.1 9.6 3.9 13 6.3 3.5 2.4 8.4 7 10.9 10.3 2.5 3.2 5.6 8.6 7 11.9 2.4 6 2.4 6.2 2.6 45.7l0.3 39.8h52l5.5-4.8c1-152.5 1-153.1 3.1-155.9 1.2-1.5 3.8-4.2 5.9-5.8l3.7-3c28.9-0.8 37.2-1.3 37-1.8-0.1-0.4-40.5-38.8-89.8-85.5-49.3-46.6-90-84.8-90.3-84.9-0.3-0.1-41 38.1-90.4 84.8-49.3 46.7-89.7 85.2-89.7 85.7z"/>
</svg>