<svg version="1.2" xmlns="http://www.w3.org/2000/svg" viewBox="0 0 512 512" width="512" height="512">
	<title>nav-menu-icons</title>
	<style>
		.s0 { fill: #ffffff } 
	</style>
	<g id="home">
		<path id="Layer" class="s0" d="m253.5 309.6c-30 0-54.4 24.3-54.4 54.4v108.7h108.8v-108.7c0-30.1-24.4-54.4-54.4-54.4z"/>
		<g id="Layer">
			<path id="Layer" class="s0" d="m344.1 364v108.7h72.5c30.1 0 54.4-24.3 54.4-54.4v-165.3c0-9.4-3.7-18.4-10.2-25.2l-154-166.5c-27.2-29.4-73.1-31.2-102.5-4.1q-2.1 2-4 4.1l-153.8 166.4c-6.7 6.8-10.5 16-10.5 25.6v165c0 30.1 24.3 54.4 54.4 54.4h72.5v-108.7c0.3-49.5 40.2-89.8 88.4-91 49.8-1.2 92.4 39.9 92.8 91z"/>
			<path id="Layer" class="s0" d="m253.5 309.6c-30 0-54.4 24.3-54.4 54.4v108.7h108.8v-108.7c0-30.1-24.4-54.4-54.4-54.4z"/>
		</g>
	</g>
</svg>