<svg version="1.2" xmlns="http://www.w3.org/2000/svg" viewBox="0 0 512 512" width="512" height="512">
	<title>nav-menu-icons</title>
	<style>
		.s0 { fill: #ffffff } 
	</style>
	<path id="Layer" fill-rule="evenodd" class="s0" d="m475 183v182.9c0 50.5-41 91.5-91.5 91.5h-18.2c-10.2 0-18.3-8.2-18.3-18.3 0-10.1 8.1-18.3 18.3-18.3h18.2c30.3 0 54.9-24.6 54.9-54.9v-164.6h-365.8v164.6c0 30.3 24.6 54.9 54.9 54.9h18.3c10 0 18.2 8.2 18.2 18.3 0 10.1-8.2 18.3-18.2 18.3h-18.3c-50.5 0-91.5-41-91.5-91.5v-219.5c0-50.4 41-91.4 91.5-91.4h46.2c8.5 0 16.9 2 24.5 5.8l57.8 28.8c2.5 1.3 5.3 2 8.1 2h119.4c50.5 0 91.5 41 91.5 91.4zm-402.4-18.3h362.5c-7.6-21.2-27.7-36.6-51.6-36.6h-119.4c-8.4 0-16.9-2-24.5-5.8l-57.7-28.8c-2.5-1.3-5.4-1.9-8.2-1.9h-46.2c-30.3 0-54.9 24.6-54.9 54.8 0 0 0 18.3 0 18.3zm250.7 221.5c7.2 7.1 7.2 18.7 0 25.8l-29.5 29.5c-10.6 10.6-24.4 15.8-38.3 15.8-13.9 0-27.7-5.2-38.3-15.8l-29.5-29.5c-7.2-7.1-7.2-18.7 0-25.8 7.1-7.2 18.7-7.2 25.9 0l23.6 23.6v-135.3c0-10.1 8.2-18.3 18.3-18.3 10.1 0 18.3 8.2 18.3 18.3v135.3l23.6-23.6c7.2-7.2 18.8-7.2 25.9 0z"/>
</svg>