<svg version="1.2" xmlns="http://www.w3.org/2000/svg" viewBox="0 0 512 512" width="512" height="512">
	<title>play-button-svg</title>
	<style>
		.s0 { fill: #6f2dff } 
		.s1 { fill: #ffffff } 
	</style>
	<path id="Layer" class="s0" d="m14 94c0-44.2 35.8-80 80-80h324c44.2 0 80 35.8 80 80v324c0 44.2-35.8 80-80 80h-324c-44.2 0-80-35.8-80-80z"/>
	<path id="Path 0" class="s1" d="m197.1 165.2c-1.5 0.6-3.3 1.5-4.1 2-0.8 0.4-2.4 1.8-3.5 3-1.2 1.2-2.6 3.2-3.2 4.3-0.6 1.2-1.3 3.2-1.7 4.5-0.5 2.1-0.6 11.9-0.6 76.8 0 67.5 0.1 74.7 0.7 76.7 0.3 1.3 1.1 3.2 1.7 4.3 0.5 1.2 1.9 3.1 3.1 4.3 1.1 1.2 2.8 2.6 3.7 3.1 0.9 0.6 2.8 1.5 4.3 2 2.7 1.1 2.7 1.1 16 1.1 13.2 0 13.3 0 15.9-1.1 1.5-0.5 3.4-1.4 4.3-2 0.9-0.5 2.6-1.9 3.7-3.1 1.2-1.2 2.6-3.2 3.2-4.4 0.6-1.1 1.4-3.2 1.7-4.5 0.5-2 0.6-11.8 0.6-76.6 0-64.8-0.1-74.5-0.6-76.6-0.3-1.3-1.1-3.3-1.7-4.5-0.6-1.1-2-3.1-3.2-4.3-1.1-1.2-2.8-2.6-3.7-3.2-0.9-0.5-2.8-1.4-4.3-2l-2.6-1-27 0.1zm85 0c-1.4 0.6-3.3 1.5-4.1 1.9-0.7 0.5-2.3 1.9-3.5 3.1-1.1 1.2-2.5 3.2-3.1 4.3-0.6 1.2-1.4 3.2-1.7 4.5-0.6 2.1-0.7 11.8-0.7 76.6 0 64.8 0.1 74.6 0.7 76.6 0.3 1.3 1.1 3.3 1.7 4.5 0.6 1.2 2 3.2 3.1 4.4 1.2 1.2 2.9 2.6 3.8 3.1 0.9 0.6 2.8 1.5 4.2 2 2.7 1.1 2.7 1.1 16 1.1 13.3 0 13.3 0 16-1.1 1.4-0.5 3.3-1.4 4.2-2 0.9-0.5 2.6-1.9 3.8-3.1 1.1-1.2 2.5-3.2 3.1-4.4 0.6-1.2 1.4-3.2 1.7-4.5 0.6-2 0.7-11.8 0.7-76.8 0-67.4-0.1-74.6-0.7-76.7-0.4-1.2-1.1-3.1-1.7-4.3-0.6-1.1-2-3-3.1-4.2-1.2-1.2-2.9-2.6-3.8-3.2-0.9-0.5-2.8-1.4-4.2-2l-2.7-1-27 0.1z"/>
</svg>