<svg version="1.2" xmlns="http://www.w3.org/2000/svg" viewBox="0 0 512 512" width="512" height="512">
	<title>playlist (1)</title>
	<style>
		.s0 { fill: #6f2dff } 
	</style>
	<g id="Background">
		<path id="Path 1" class="s0" d="m113.3 26.1c-3.2 0.8-8.9 3-12.5 4.9-3.7 1.8-10.2 6.7-14.5 10.8-4.9 4.5-9.7 11.2-12.6 17.3l-4.7 10.1v373.3c8 16.4 12.9 23.1 17.6 27.4 4.2 3.9 10.8 8.5 14.6 10.4 3.9 1.9 11.2 4.1 16.4 5.1 6.1 1.1 12.5 1.2 18.1 0.3 4.7-0.8 11.1-2.4 14.1-3.6 3-1.3 65.8-42.5 139.6-91.7 77.8-51.9 136.4-92 139.6-95.5 3-3.4 7.1-9.3 9-13.2 1.9-3.9 4.2-11 5.1-15.7 0.9-4.8 1.2-12.2 0.6-16.5-0.6-4.3-2-10.6-3.2-14.1-1.3-3.4-4.9-10.1-8.1-14.8-5.4-7.9-15.2-14.7-139.9-97.9-73.8-49.1-138-91.1-142.7-93.2-5.8-2.6-12.2-4.1-19.6-4.4-6.1-0.3-13.7 0.2-16.9 1z"/>
	</g>
</svg>