<svg version="1.2" xmlns="http://www.w3.org/2000/svg" viewBox="0 0 512 512" width="512" height="512">
	<title>playlist (1)</title>
	<style>
		.s0 { fill: #d4d4d4 } 
		.s1 { fill: #6f2dff } 
	</style>
	<g id="Background">
		<path id="Path 0" class="s0" d="m293 49.1c-1.4 0.6-3.6 2-4.8 3.2-1.3 1.2-3 3.4-3.8 4.9-0.8 1.6-1.4 4.7-1.4 7 0 2.8 0.7 5.5 2.2 7.7 1.3 1.9 3.6 4.4 5.1 5.5 2.8 2.1 3.1 2.1 103.3 2.3 98.7 0.3 100.5 0.3 104.4-1.7 2.3-1.2 4.9-3.5 6.2-5.8 1.2-2 2.3-5.3 2.6-7.2 0.2-2.4-0.4-4.9-2-8-1.6-2.8-3.9-5.3-6.4-6.7l-3.9-2.3c-163.2 0.1-199.9 0.5-201.5 1.1zm-1.8 107.6c-1.8 0.9-4.3 3-5.5 4.7-1.4 2-2.3 5.1-2.5 8.6-0.3 4.5 0.1 6.1 2 9 1.3 1.9 4.3 4.5 6.8 5.8l4.5 2.2c154.5 0 196.5-0.4 198.5-0.9 2-0.6 5.1-2.7 7.2-5 2.1-2.3 4.1-5.6 4.4-7.3 0.4-1.8 0.4-4.4 0-5.8-0.3-1.4-1.5-4-2.6-5.7-1.1-1.8-3.5-4.2-5.3-5.3-3.1-2-5-2-103.7-2-90.5 0-100.8 0.2-103.8 1.7zm-83.1 105.4c-2.1 0.5-4.8 2.4-6.6 4.6-2 2.4-3.4 5.5-3.9 8.3-0.6 3.7-0.3 5.3 1.6 9 1.3 2.5 3.9 5.5 5.8 6.8l3.5 2.3c268.5-0.1 286.9-0.3 289.5-1.6 1.6-0.8 3.9-2.7 5.1-4.3 1.1-1.5 2.4-4.4 3-6.5 0.6-2.3 0.5-5.1-0.1-7.5-0.5-2-2.4-5.2-4.2-6.9-1.8-1.8-4.9-3.7-6.8-4.3-2.3-0.7-51.1-1-143.5-0.9-80.3 0-141.5 0.5-143.4 1zm-66.1 108.2c-1.9 1.2-4.6 3.8-6 5.7-1.7 2.5-2.4 4.8-2.4 8 0 2.8 0.8 5.9 2.2 8.2 1.3 2.2 3.9 4.6 6.2 5.8 4 2 6 2 178 2 172 0 174 0 178-2 2.3-1.2 4.9-3.6 6.2-5.8 1.4-2.3 2.2-5.4 2.2-8.2 0-2.8-0.8-5.9-2.2-8.3-1.3-2.1-3.9-4.5-6.2-5.7-4-2-6-2-178.3-2h-174.2zm-65.1 107c-1.8 1.3-4.4 4.3-5.7 6.8-1.9 3.7-2.2 5.3-1.6 9 0.5 2.9 1.8 5.7 3.8 7.8 1.7 1.9 4.4 4 5.9 4.8 2.3 1.1 36 1.4 208.7 1.4 150.1 0 206.6-0.3 208.3-1.2 1.2-0.6 3.7-2.5 5.5-4.2 1.8-1.7 3.7-4.8 4.3-6.9 0.6-2.4 0.6-5.1 0-7.5-0.6-2-1.9-5-3-6.5-1.2-1.5-3.4-3.4-5.1-4.2-2.6-1.4-28-1.5-210.3-1.5h-207.3z"/>
		<path id="Path 1" class="s1" d="m33.8 3c-2.1 0.6-5.7 2-8 3.2-2.4 1.1-6.5 4.2-9.3 6.8-3.1 2.9-6.1 7.2-8 11.1l-3 6.4v238c5.1 10.5 8.2 14.8 11.2 17.5 2.7 2.5 6.9 5.5 9.3 6.7 2.5 1.1 7.2 2.6 10.5 3.2 3.9 0.7 7.9 0.8 11.5 0.2 3-0.5 7.1-1.5 9-2.3 1.9-0.8 42-27.1 89-58.5 49.6-33.1 87-58.6 89-60.9 2-2.1 4.6-5.9 5.8-8.4 1.2-2.5 2.6-7 3.2-10 0.6-3 0.8-7.8 0.4-10.5-0.4-2.8-1.3-6.8-2.1-9-0.7-2.2-3-6.4-5.1-9.4-3.4-5-9.7-9.4-89.2-62.4-47-31.4-88-58.2-91-59.5-3.7-1.7-7.8-2.6-12.5-2.8-3.8-0.2-8.7 0.1-10.7 0.6z"/>
	</g>
</svg>