<svg version="1.2" xmlns="http://www.w3.org/2000/svg" viewBox="0 0 512 512" width="512" height="512">
	<title>replay-logo-white</title>
	<style>
		.s0 { fill: #ffffff } 
		.s1 { fill: #000000 } 
	</style>
	<path id="Background" class="s0" d="m0 30c0-16.6 13.4-30 30-30h452c16.6 0 30 13.4 30 30v452c0 16.6-13.4 30-30 30h-452c-16.6 0-30-13.4-30-30z"/>
	<g id="&lt;Group&gt;">
		<path id="&lt;Path&gt;" class="s1" d="m78.6 471.2h134.5v-67.1l-134.5-67.9z"/>
		<path id="&lt;Path&gt;" class="s1" d="m425.4 115.7c-23.5-44-72.7-73.3-146.9-73.3h-11.1l-28.6 322.8 26.7 51.2z"/>
		<path id="&lt;Path&gt;" class="s1" d="m299.2 492.9h147.8l-93.3-164.1c61.2-20 92.7-67.8 92.7-124.1 0-24.6-5.4-47.4-16-67.3l-159.9 300.7z"/>
		<path id="&lt;Path&gt;" class="s1" d="m66 20v293.8l134.4 67.9v-86.8h0.6l25.1 47.9 28.7-322.8z"/>
	</g>
</svg>